<?xml version="1.0" encoding="UTF-8" standalone="no"?>
<svg
   height="20"
   viewBox="0 -960 800 800"
   width="20"
   fill="#888888"
   version="1.1"
   id="svg1"
   sodipodi:docname="incomplete.svg"
   xml:space="preserve"
   inkscape:version="1.4 (e7c3feb1, 2024-10-09)"
   xmlns:inkscape="http://www.inkscape.org/namespaces/inkscape"
   xmlns:sodipodi="http://sodipodi.sourceforge.net/DTD/sodipodi-0.dtd"
   xmlns="http://www.w3.org/2000/svg"
   xmlns:svg="http://www.w3.org/2000/svg"><defs
     id="defs1" /><sodipodi:namedview
     id="namedview1"
     pagecolor="#ffffff"
     bordercolor="#000000"
     borderopacity="0.25"
     inkscape:showpageshadow="2"
     inkscape:pageopacity="0.0"
     inkscape:pagecheckerboard="0"
     inkscape:deskcolor="#d1d1d1"
     inkscape:zoom="15.242061"
     inkscape:cx="6.232753"
     inkscape:cy="8.0041671"
     inkscape:window-width="1104"
     inkscape:window-height="687"
     inkscape:window-x="46"
     inkscape:window-y="30"
     inkscape:window-maximized="0"
     inkscape:current-layer="svg1" /><path
     id="path1"
     style="stroke-width:0;stroke-dasharray:none;fill:#808080"
     d="M 340 -960 C 310 -960 277.36458 -950.96875 242.03125 -932.96875 C 206.69792 -914.96875 181 -884 165 -840 L 155.46875 -840 L 120.07812 -840 L 80 -840 C 58 -840 39.182305 -832.15103 23.515625 -816.48438 C 7.848975 -800.81771 2.9605947e-15 -782 0 -760 L 0 -607.96875 C 32 -607.96875 59.984365 -597.83333 83.984375 -577.5 C 107.98436 -557.16667 120 -531.33333 120 -500 C 120 -468.66667 107.98437 -442.83333 83.984375 -422.5 C 59.984365 -402.16667 32 -392.03125 0 -392.03125 L 0 -240 C 0 -218 7.848975 -199.18229 23.515625 -183.51562 C 39.182295 -167.84897 58 -160 80 -160 L 232.03125 -160 C 232.03125 -193.33333 242.51563 -221.66667 263.51562 -245 C 284.51562 -268.33333 310 -280 340 -280 C 370 -280 395.48438 -268.33333 416.48438 -245 C 437.48437 -221.66667 447.96875 -193.33333 447.96875 -160 L 600 -160 C 622 -160 640.81771 -167.84897 656.48438 -183.51562 C 672.15103 -199.18229 680 -218 680 -240 L 680 -327.96875 C 716 -341.96875 745.03125 -364.6823 767.03125 -396.01562 C 789.03125 -427.34897 800 -462 800 -500 C 800 -538.66667 789.03125 -573.66667 767.03125 -605 C 745.03125 -636.33333 716 -658.69792 680 -672.03125 L 680 -696.71875 L 680 -760 C 680 -782 672.15103 -800.81771 656.48438 -816.48438 C 640.81771 -832.15103 622 -840 600 -840 L 537.10938 -840 L 529.0625 -840 L 515 -840 C 499 -884 473.30208 -914.96875 437.96875 -932.96875 C 402.63542 -950.96875 370 -960 340 -960 z " /></svg>
